<?xml version="1.0" encoding="UTF-8" standalone="no"?>
<svg width="82px" height="82px" viewBox="0 0 82 82" version="1.1" xmlns="http://www.w3.org/2000/svg" xmlns:xlink="http://www.w3.org/1999/xlink">
    <!-- Generator: Sketch 42 (36781) - http://www.bohemiancoding.com/sketch -->
    <title>Profile</title>
    <desc>Created with Sketch.</desc>
    <defs></defs>
    <g id="Page-1" stroke="none" stroke-width="1" fill="none" fill-rule="evenodd">
        <g id="Profile" fill-rule="nonzero" fill="#000000">
            <g id="Group">
                <path d="M81.7,41 C81.7,18.5 63.5,0.3 41,0.3 C18.5,0.3 0.3,18.5 0.3,41 C0.3,63.5 18.5,81.7 41,81.7 C63.5,81.7 81.7,63.5 81.7,41 Z M4.3,41 C4.3,20.7 20.8,4.3 41,4.3 C61.2,4.3 77.7,20.7 77.7,41 C77.7,51.3 73.5,60.6 66.6,67.2 C61.3,58.1 51.6,52.5 40.9,52.5 C30.3,52.5 20.5,58.2 15.2,67.2 C8.5,60.6 4.3,51.3 4.3,41 Z M18.4,69.9 C22.9,61.7 31.6,56.5 41,56.5 C50.5,56.5 59.1,61.6 63.6,69.9 C57.4,74.8 49.5,77.7 41,77.7 C32.5,77.7 24.6,74.8 18.4,69.9 Z" id="Shape"></path>
                <path d="M41,47.3 C49.8,47.3 57,40.1 57,31.3 C57,22.5 49.8,15.3 41,15.3 C32.2,15.3 25,22.5 25,31.3 C25,40.1 32.2,47.3 41,47.3 Z M41,19.3 C47.6,19.3 53,24.7 53,31.3 C53,37.9 47.6,43.3 41,43.3 C34.4,43.3 29,37.9 29,31.3 C29,24.7 34.4,19.3 41,19.3 Z" id="Shape"></path>
            </g>
        </g>
    </g>
</svg>